HIERARCHY
ROOT Hips
{
	OFFSET 0.000000 100.481300 0.000000
	CHANNELS 6 Xposition Yposition Zposition Xrotation Yrotation Zrotation
	JOINT Spine
	{
		OFFSET -0.279200 12.230698 -2.892100
		CHANNELS 3 Xrotation Yrotation Zrotation
		JOINT Spine1
		{
			OFFSET -0.325700 14.269203 -3.374200
			CHANNELS 3 Xrotation Yrotation Zrotation
			JOINT Spine2
			{
				OFFSET -0.372300 16.307602 -0.352600
				CHANNELS 3 Xrotation Yrotation Zrotation
				JOINT Neck
				{
					OFFSET -0.418800 17.814194 8.416900
					CHANNELS 3 Xrotation Yrotation Zrotation
					JOINT Head
					{
						OFFSET 0.000000 7.031097 3.806800
						CHANNELS 3 Xrotation Yrotation Zrotation
						JOINT HeadTop_End
						{
							OFFSET 0.000000 24.646606 12.978600
							CHANNELS 3 Xrotation Yrotation Zrotation
							End Site
							{
								OFFSET 0.000000 27.854965 0.000000
							}
						}
					}
				}
				JOINT LeftShoulder
				{
					OFFSET 16.952999 14.495407 -7.737500
					CHANNELS 3 Xrotation Yrotation Zrotation
					JOINT LeftArm
					{
						OFFSET 9.308998 -2.777710 0.208600
						CHANNELS 3 Xrotation Yrotation Zrotation
						JOINT LeftForeArm
						{
							OFFSET 29.972298 0.000000 0.000000
							CHANNELS 3 Xrotation Yrotation Zrotation
							JOINT LeftHand
							{
								OFFSET 26.026505 0.000000 0.000000
								CHANNELS 3 Xrotation Yrotation Zrotation
								JOINT LeftHandThumb1
								{
									OFFSET 12.240501 -7.147949 9.207150
									CHANNELS 3 Xrotation Yrotation Zrotation
									JOINT LeftHandThumb2
									{
										OFFSET 4.138618 -2.389435 2.389433
										CHANNELS 3 Xrotation Yrotation Zrotation
										JOINT LeftHandThumb3
										{
											OFFSET 2.726913 -1.574387 1.574386
											CHANNELS 3 Xrotation Yrotation Zrotation
											JOINT LeftHandThumb4
											{
												OFFSET 3.941010 -2.275345 2.275342
												CHANNELS 3 Xrotation Yrotation Zrotation
												End Site
												{
													OFFSET -0.005798 5.087799 0.009903
												}
											}
										}
									}
								}
								JOINT LeftHandIndex1
								{
									OFFSET 24.424698 -1.985611 5.953459
									CHANNELS 3 Xrotation Yrotation Zrotation
									JOINT LeftHandIndex2
									{
										OFFSET 6.426697 0.000000 0.000000
										CHANNELS 3 Xrotation Yrotation Zrotation
										JOINT LeftHandIndex3
										{
											OFFSET 5.337898 0.000000 0.000000
											CHANNELS 3 Xrotation Yrotation Zrotation
											JOINT LeftHandIndex4
											{
												OFFSET 4.409401 0.000000 0.000000
												CHANNELS 3 Xrotation Yrotation Zrotation
												End Site
												{
													OFFSET 0.000000 4.409363 0.014373
												}
											}
										}
									}
								}
								JOINT LeftHandMiddle1
								{
									OFFSET 23.810104 0.000000 0.000000
									CHANNELS 3 Xrotation Yrotation Zrotation
									JOINT LeftHandMiddle2
									{
										OFFSET 7.176498 0.000000 0.000000
										CHANNELS 3 Xrotation Yrotation Zrotation
										JOINT LeftHandMiddle3
										{
											OFFSET 6.774902 0.000000 0.000000
											CHANNELS 3 Xrotation Yrotation Zrotation
											JOINT LeftHandMiddle4
											{
												OFFSET 5.403328 0.000000 0.000000
												CHANNELS 3 Xrotation Yrotation Zrotation
												End Site
												{
													OFFSET -0.027702 5.403244 0.017414
												}
											}
										}
									}
								}
								JOINT LeftHandRing1
								{
									OFFSET 22.908401 -0.839279 -6.020567
									CHANNELS 3 Xrotation Yrotation Zrotation
									JOINT LeftHandRing2
									{
										OFFSET 6.337502 0.000000 0.000000
										CHANNELS 3 Xrotation Yrotation Zrotation
										JOINT LeftHandRing3
										{
											OFFSET 5.779297 0.000000 0.000000
											CHANNELS 3 Xrotation Yrotation Zrotation
											JOINT LeftHandRing4
											{
												OFFSET 4.965698 0.000000 0.000000
												CHANNELS 3 Xrotation Yrotation Zrotation
												End Site
												{
													OFFSET 0.000000 4.965668 0.016186
												}
											}
										}
									}
								}
								JOINT LeftHandPinky1
								{
									OFFSET 20.037003 -1.530319 -10.950146
									CHANNELS 3 Xrotation Yrotation Zrotation
									JOINT LeftHandPinky2
									{
										OFFSET 5.254700 0.000000 0.000000
										CHANNELS 3 Xrotation Yrotation Zrotation
										JOINT LeftHandPinky3
										{
											OFFSET 4.810204 0.000000 0.000000
											CHANNELS 3 Xrotation Yrotation Zrotation
											JOINT LeftHandPinky4
											{
												OFFSET 3.647202 0.000000 0.000000
												CHANNELS 3 Xrotation Yrotation Zrotation
												End Site
												{
													OFFSET 0.000000 3.647186 0.011889
												}
											}
										}
									}
								}
							}
						}
					}
				}
				JOINT RightShoulder
				{
					OFFSET -15.141001 14.495407 -7.737500
					CHANNELS 3 Xrotation Yrotation Zrotation
					JOINT RightArm
					{
						OFFSET -9.308998 -2.777710 0.208500
						CHANNELS 3 Xrotation Yrotation Zrotation
						JOINT RightForeArm
						{
							OFFSET -29.972300 0.000000 0.000000
							CHANNELS 3 Xrotation Yrotation Zrotation
							JOINT RightHand
							{
								OFFSET -26.026505 0.000000 0.000000
								CHANNELS 3 Xrotation Yrotation Zrotation
								JOINT RightHandThumb1
								{
									OFFSET -12.240601 -7.148026 9.207092
									CHANNELS 3 Xrotation Yrotation Zrotation
									JOINT RightHandThumb2
									{
										OFFSET -4.138618 -2.389435 2.389433
										CHANNELS 3 Xrotation Yrotation Zrotation
										JOINT RightHandThumb3
										{
											OFFSET -2.726974 -1.574417 1.574421
											CHANNELS 3 Xrotation Yrotation Zrotation
											JOINT RightHandThumb4
											{
												OFFSET -3.941010 -2.275345 2.275343
												CHANNELS 3 Xrotation Yrotation Zrotation
												End Site
												{
													OFFSET 0.005814 5.087799 0.009927
												}
											}
										}
									}
								}
								JOINT RightHandIndex1
								{
									OFFSET -24.424698 -1.985657 5.953444
									CHANNELS 3 Xrotation Yrotation Zrotation
									JOINT RightHandIndex2
									{
										OFFSET -6.426697 0.000000 0.000000
										CHANNELS 3 Xrotation Yrotation Zrotation
										JOINT RightHandIndex3
										{
											OFFSET -5.337898 0.000000 0.000000
											CHANNELS 3 Xrotation Yrotation Zrotation
											JOINT RightHandIndex4
											{
												OFFSET -4.409401 0.000000 0.000000
												CHANNELS 3 Xrotation Yrotation Zrotation
												End Site
												{
													OFFSET 0.000000 4.409363 0.014408
												}
											}
										}
									}
								}
								JOINT RightHandMiddle1
								{
									OFFSET -23.810097 0.000000 0.000000
									CHANNELS 3 Xrotation Yrotation Zrotation
									JOINT RightHandMiddle2
									{
										OFFSET -7.176498 0.000000 0.000000
										CHANNELS 3 Xrotation Yrotation Zrotation
										JOINT RightHandMiddle3
										{
											OFFSET -6.774902 0.000000 0.000000
											CHANNELS 3 Xrotation Yrotation Zrotation
											JOINT RightHandMiddle4
											{
												OFFSET -5.403328 0.000000 0.000000
												CHANNELS 3 Xrotation Yrotation Zrotation
												End Site
												{
													OFFSET 0.027702 5.403244 0.017457
												}
											}
										}
									}
								}
								JOINT RightHandRing1
								{
									OFFSET -22.908302 -0.839325 -6.020576
									CHANNELS 3 Xrotation Yrotation Zrotation
									JOINT RightHandRing2
									{
										OFFSET -6.337502 0.000000 0.000000
										CHANNELS 3 Xrotation Yrotation Zrotation
										JOINT RightHandRing3
										{
											OFFSET -5.779297 0.000000 0.000000
											CHANNELS 3 Xrotation Yrotation Zrotation
											JOINT RightHandRing4
											{
												OFFSET -4.965698 0.000000 0.000000
												CHANNELS 3 Xrotation Yrotation Zrotation
												End Site
												{
													OFFSET 0.000000 4.965668 0.016226
												}
											}
										}
									}
								}
								JOINT RightHandPinky1
								{
									OFFSET -20.037003 -1.530334 -10.950259
									CHANNELS 3 Xrotation Yrotation Zrotation
									JOINT RightHandPinky2
									{
										OFFSET -5.254700 0.000000 0.000000
										CHANNELS 3 Xrotation Yrotation Zrotation
										JOINT RightHandPinky3
										{
											OFFSET -4.810204 0.000000 0.000000
											CHANNELS 3 Xrotation Yrotation Zrotation
											JOINT RightHandPinky4
											{
												OFFSET -3.647202 0.000000 0.000000
												CHANNELS 3 Xrotation Yrotation Zrotation
												End Site
												{
													OFFSET 0.000000 3.647186 0.011917
												}
											}
										}
									}
								}
							}
						}
					}
				}
			}
		}
	}
	JOINT LeftUpLeg
	{
		OFFSET 15.427100 -6.655098 0.678600
		CHANNELS 3 Xrotation Yrotation Zrotation
		JOINT LeftLeg
		{
			OFFSET 4.081073 -39.591068 13.024000
			CHANNELS 3 Xrotation Yrotation Zrotation
			JOINT LeftFoot
			{
				OFFSET -4.081074 -37.707932 -15.979700
				CHANNELS 3 Xrotation Yrotation Zrotation
				JOINT LeftToeBase
				{
					OFFSET 5.346399 -15.068900 20.645000
					CHANNELS 3 Xrotation Yrotation Zrotation
					JOINT LeftToe_End
					{
						OFFSET 2.754700 0.931300 11.300900
						CHANNELS 3 Xrotation Yrotation Zrotation
						End Site
						{
							OFFSET 0.000000 11.669021 0.000000
						}
					}
				}
			}
		}
	}
	JOINT RightUpLeg
	{
		OFFSET -15.569500 -6.655098 0.678600
		CHANNELS 3 Xrotation Yrotation Zrotation
		JOINT RightLeg
		{
			OFFSET -4.081825 -39.591045 13.023800
			CHANNELS 3 Xrotation Yrotation Zrotation
			JOINT RightFoot
			{
				OFFSET 4.081824 -37.707954 -15.979600
				CHANNELS 3 Xrotation Yrotation Zrotation
				JOINT RightToeBase
				{
					OFFSET -5.346400 -15.068900 20.645000
					CHANNELS 3 Xrotation Yrotation Zrotation
					JOINT RightToe_End
					{
						OFFSET -2.754700 0.931300 11.300900
						CHANNELS 3 Xrotation Yrotation Zrotation
						End Site
						{
							OFFSET 0.000000 11.669021 0.000000
						}
					}
				}
			}
		}
	}
}
MOTION
Frames: 4
Frame Time: 0.033333
2.195110 72.839005 -1.714699 -5.400173 -46.432087 -0.526798 9.420040 7.435507 -1.366556 2.187716 0.989899 -0.915631 2.202829 0.982779 -0.894153 0.084651 13.220564 4.538679 8.920928 20.138147 -4.130234 -0.000000 0.000000 -0.000001 1.117176 3.546355 -8.633310 -53.487020 4.935499 -51.503011 0.000263 -106.358080 0.000269 1.988603 -7.706146 -15.869267 -6.141212 -11.690805 -6.761678 9.914109 42.595512 3.409854 -0.422809 8.108112 27.509128 0.000000 0.000001 -0.000001 0.255316 3.378215 -45.814341 5.654088 5.847753 -88.067455 2.162138 4.544809 -50.866369 -0.000000 -0.000001 0.000001 -0.461466 3.841593 -39.722690 6.450754 5.820356 -95.892871 2.182884 4.561574 -51.127736 0.000002 0.000000 0.000000 0.469723 4.966833 -39.799444 8.181049 5.368611 -113.503018 3.200486 5.218113 -63.022982 0.000000 -0.000000 -0.000000 -3.762436 9.063690 -45.253825 5.342536 5.829011 -85.005304 8.716837 5.103332 -119.369181 -0.000001 0.000000 -0.000000 3.036126 13.027200 -5.371409 -48.713705 27.172834 83.457057 0.000129 105.988301 -0.000144 -8.345380 17.548119 8.775696 -7.341104 13.749657 7.412322 9.855812 -44.489079 -3.903233 -0.115772 -14.513086 -28.973881 -0.000000 -0.000000 0.000001 -0.124378 -2.384786 45.108861 4.500588 -4.654537 88.071171 1.723228 -3.618374 50.920122 -0.000003 -0.000000 0.000001 -0.761624 -2.932905 39.031055 5.133890 -4.632767 95.881635 1.739749 -3.631701 51.181367 0.000000 -0.000001 0.000003 0.154763 -4.068815 39.122671 6.509725 -4.273597 113.462863 2.549585 -4.153922 63.067337 0.000001 -0.000000 0.000002 -4.198867 -8.025503 44.637766 4.252909 -4.639637 85.014818 6.935964 -4.062625 119.322298 -0.000003 0.000000 0.000000 -34.255472 5.085967 20.300769 56.771644 -7.634003 3.672671 -20.132944 -7.078593 -17.222786 -1.594044 -0.000010 -0.000002 -0.000000 -0.000002 -0.000000 -19.408614 -8.980194 -34.667605 57.007966 -2.876449 -4.766530 -26.306501 -10.338565 26.246260 -0.013007 -0.000001 -0.000002 -0.000000 -0.000001 0.000000 
2.110765 73.272957 -1.461759 -6.140319 -47.450769 -0.869917 8.797092 7.042487 -1.873619 3.193213 1.179561 -1.558545 3.208409 1.143465 -1.541780 0.807719 12.351599 3.940613 8.075133 21.906418 -1.546187 -0.000001 -0.000001 0.000001 0.757900 3.071476 -7.023036 -49.580647 5.502881 -52.906550 0.000039 -108.065334 0.000054 -0.194452 -5.210304 -16.343745 -6.141214 -11.690803 -6.761673 9.914117 42.595512 3.409859 -0.422806 8.108113 27.509126 0.000000 -0.000001 0.000000 0.255313 3.378214 -45.814331 5.654088 5.847752 -88.067455 2.162137 4.544809 -50.866369 0.000000 -0.000002 0.000003 -0.461467 3.841589 -39.722679 6.450756 5.820355 -95.892871 2.182887 4.561573 -51.127733 -0.000000 -0.000001 -0.000001 0.469722 4.966829 -39.799444 8.181052 5.368612 -113.503018 3.200487 5.218113 -63.022982 0.000001 -0.000000 0.000000 -3.762437 9.063689 -45.253825 5.342536 5.829011 -85.005304 8.716834 5.103330 -119.369181 0.000001 -0.000000 0.000000 4.152890 14.743979 -4.929400 -48.919724 27.230516 79.394952 0.000026 106.369329 -0.000026 -12.258242 17.821750 9.898768 -7.341101 13.749659 7.412321 9.855808 -44.489086 -3.903226 -0.115776 -14.513081 -28.973878 -0.000000 -0.000003 0.000001 -0.124377 -2.384786 45.108861 4.500587 -4.654537 88.071171 1.723224 -3.618373 50.920122 0.000000 0.000000 0.000004 -0.761623 -2.932906 39.031051 5.133891 -4.632765 95.881635 1.739746 -3.631702 51.181367 -0.000001 0.000000 0.000000 0.154764 -4.068815 39.122668 6.509730 -4.273600 113.462863 2.549585 -4.153925 63.067337 -0.000001 0.000000 -0.000000 -4.198865 -8.025500 44.637766 4.252918 -4.639634 85.014818 6.935966 -4.062626 119.322285 0.000003 -0.000000 -0.000001 -32.343070 5.458798 20.359749 55.925391 -6.856320 3.304807 -20.585598 -6.947507 -17.556921 -1.577361 -0.000034 -0.000001 -0.000000 -0.000002 -0.000000 -19.503404 -9.126568 -34.773501 56.314206 -2.158427 -5.169280 -25.932946 -9.896740 25.753563 -0.008601 -0.000005 -0.000003 -0.000000 -0.000001 -0.000001 
2.078311 73.736099 -1.098706 -7.084804 -48.441921 -1.246959 7.908223 6.819466 -2.504184 4.216098 1.479290 -2.373840 4.235903 1.382666 -2.363910 1.948238 11.140016 3.814420 7.922906 22.550590 1.790077 -0.000001 0.000000 -0.000000 0.352232 2.355105 -4.901387 -45.200863 5.842987 -55.731386 0.000046 -109.597612 0.000048 -1.994903 -1.813337 -16.301172 -6.141210 -11.690804 -6.761679 9.914119 42.595515 3.409862 -0.422806 8.108114 27.509126 -0.000004 0.000001 -0.000001 0.255316 3.378216 -45.814331 5.654090 5.847751 -88.067455 2.162137 4.544809 -50.866369 -0.000002 0.000000 0.000001 -0.461467 3.841591 -39.722686 6.450749 5.820355 -95.892871 2.182887 4.561570 -51.127736 -0.000002 -0.000000 -0.000003 0.469720 4.966836 -39.799444 8.181048 5.368612 -113.503018 3.200486 5.218114 -63.022975 -0.000001 -0.000000 -0.000000 -3.762436 9.063692 -45.253828 5.342533 5.829011 -85.005304 8.716836 5.103331 -119.369167 -0.000003 -0.000001 0.000001 5.422310 16.699089 -4.617029 -48.244143 27.019349 73.359660 -0.000025 106.878015 0.000013 -16.183460 17.812196 10.104420 -7.341100 13.749658 7.412322 9.855808 -44.489079 -3.903234 -0.115774 -14.513083 -28.973881 -0.000002 0.000001 -0.000002 -0.124378 -2.384785 45.108861 4.500586 -4.654537 88.071171 1.723224 -3.618373 50.920122 -0.000001 -0.000000 0.000001 -0.761624 -2.932906 39.031058 5.133889 -4.632766 95.881635 1.739748 -3.631703 51.181367 -0.000001 0.000000 0.000000 0.154763 -4.068815 39.122668 6.509722 -4.273596 113.462863 2.549585 -4.153923 63.067337 0.000001 -0.000002 -0.000000 -4.198866 -8.025500 44.637766 4.252915 -4.639638 85.014818 6.935964 -4.062621 119.322298 -0.000002 -0.000000 -0.000000 -29.631177 4.668018 19.675108 54.997913 -4.902110 2.897395 -21.331384 -6.462163 -18.566119 -1.831330 -0.000000 -0.000001 -0.000000 0.000003 0.000000 -19.489373 -9.297389 -34.832302 55.536227 -1.425512 -6.009892 -25.441924 -9.712161 25.513408 -0.011094 -0.000001 0.000003 0.000000 0.000000 -0.000000 
2.727309 74.649628 -0.416679 -6.403846 -49.881964 -0.408035 6.700212 7.150236 -2.512276 5.238035 2.049642 -3.031814 5.267437 1.900073 -3.027756 3.820977 10.271209 3.704759 9.231647 23.070584 0.494420 0.000000 0.000000 -0.000000 -0.029637 1.287471 -2.495026 -41.667494 7.555616 -59.211880 0.000080 -110.993736 0.000088 -4.909441 1.017027 -15.412593 -6.141213 -11.690805 -6.761669 9.914118 42.595512 3.409858 -0.422805 8.108113 27.509130 0.000000 -0.000002 0.000000 0.255315 3.378215 -45.814331 5.654086 5.847753 -88.067455 2.162137 4.544811 -50.866369 -0.000001 -0.000001 0.000000 -0.461463 3.841589 -39.722683 6.450750 5.820355 -95.892871 2.182887 4.561572 -51.127736 0.000001 -0.000001 -0.000007 0.469723 4.966832 -39.799447 8.181046 5.368611 -113.503018 3.200486 5.218116 -63.022975 0.000003 -0.000000 -0.000000 -3.762433 9.063689 -45.253825 5.342532 5.829011 -85.005304 8.716836 5.103329 -119.369181 0.000002 -0.000001 -0.000000 6.668071 18.605287 -4.393209 -47.153208 26.245051 65.692397 0.000043 108.133117 -0.000029 -18.477803 16.574649 9.937690 -7.341101 13.749656 7.412320 9.855810 -44.489072 -3.903235 -0.115779 -14.513083 -28.973881 0.000003 0.000000 -0.000002 -0.124377 -2.384786 45.108864 4.500586 -4.654537 88.071171 1.723222 -3.618376 50.920119 -0.000000 -0.000002 -0.000002 -0.761623 -2.932909 39.031058 5.133889 -4.632765 95.881635 1.739747 -3.631701 51.181363 0.000003 -0.000002 -0.000001 0.154764 -4.068817 39.122671 6.509727 -4.273596 113.462863 2.549583 -4.153923 63.067337 -0.000000 0.000000 0.000002 -4.198868 -8.025503 44.637766 4.252910 -4.639637 85.014818 6.935962 -4.062619 119.322298 0.000001 -0.000000 -0.000000 -27.293904 2.165681 18.061249 53.742199 -1.040016 1.938372 -21.719006 -5.712709 -20.061097 -3.064118 0.000004 -0.000004 0.000000 0.000002 -0.000000 -20.521286 -8.507440 -34.787236 53.786944 -0.915081 -6.862721 -23.583824 -9.540615 25.729876 -0.028729 0.000006 0.000014 -0.000000 -0.000001 -0.000000 
